<?xml version="1.0" encoding="UTF-8" standalone="no"?>
<!DOCTYPE svg PUBLIC "-//W3C//DTD SVG 1.1//EN" "http://www.w3.org/Graphics/SVG/1.1/DTD/svg11.dtd">
<svg width="100%" height="100%" viewBox="0 0 271 222" version="1.1" xmlns="http://www.w3.org/2000/svg" xmlns:xlink="http://www.w3.org/1999/xlink" xml:space="preserve" xmlns:serif="http://www.serif.com/" style="fill-rule:evenodd;clip-rule:evenodd;stroke-linecap:round;stroke-linejoin:round;stroke-miterlimit:1.5;">
    <g transform="matrix(1,0,0,1,-99.8724,-497.528)">
        <g transform="matrix(0.90335,0,0,0.90335,5.26172,346.057)">
            <path d="M281.163,330.211L241.163,330.211L241.163,403.326C253.676,407.755 267.14,410.165 281.163,410.165L281.163,330.211L320.321,330.211L331.876,350.225L331.86,350.234L352.765,386.444C364.005,378.068 373.731,367.772 381.455,356.043L366.541,330.211L394.307,330.211C398.747,317.685 401.163,304.205 401.163,290.165C401.163,223.935 347.393,170.165 281.163,170.165C267.14,170.165 253.676,172.576 241.163,177.004L241.163,290.165L361.163,290.165C361.163,246.012 325.316,210.165 281.163,210.165L281.163,290.165" style="fill:none;stroke:white;stroke-width:4.98px;"/>
        </g>
        <g transform="matrix(4.6741,0,0,4.6741,-2783.57,-1123.76)">
            <path d="M640,391.568C637.746,392.941 635.099,393.732 632.269,393.732C624.051,393.732 617.379,387.06 617.379,378.842L617.379,378.833L624.539,378.833C624.539,383.1 628.003,386.564 632.269,386.564L632.269,347.689C635.315,347.698 637.868,348.14 640,348.953L640,378.358C640,378.358 640,374.566 640,378.833C640,383.1 636.536,386.564 632.269,386.564C628.003,386.564 624.539,383.1 624.539,378.833" style="fill:none;stroke:white;stroke-width:0.96px;"/>
        </g>
    </g>
</svg>
